%TF.GenerationSoftware,KiCad,Pcbnew,(5.1.8)-1*%
%TF.CreationDate,2022-04-01T10:58:03+02:00*%
%TF.ProjectId,HVPowerSupply,4856506f-7765-4725-9375-70706c792e6b,0*%
%TF.SameCoordinates,Original*%
%TF.FileFunction,Legend,Bot*%
%TF.FilePolarity,Positive*%
%FSLAX46Y46*%
G04 Gerber Fmt 4.6, Leading zero omitted, Abs format (unit mm)*
G04 Created by KiCad (PCBNEW (5.1.8)-1) date 2022-04-01 10:58:03*
%MOMM*%
%LPD*%
G01*
G04 APERTURE LIST*
%ADD10C,0.250000*%
G04 APERTURE END LIST*
D10*
X150740142Y-95543857D02*
X150525857Y-95615285D01*
X150454428Y-95686714D01*
X150383000Y-95829571D01*
X150383000Y-96043857D01*
X150454428Y-96186714D01*
X150525857Y-96258142D01*
X150668714Y-96329571D01*
X151240142Y-96329571D01*
X151240142Y-94829571D01*
X150740142Y-94829571D01*
X150597285Y-94901000D01*
X150525857Y-94972428D01*
X150454428Y-95115285D01*
X150454428Y-95258142D01*
X150525857Y-95401000D01*
X150597285Y-95472428D01*
X150740142Y-95543857D01*
X151240142Y-95543857D01*
X149811571Y-95901000D02*
X149097285Y-95901000D01*
X149954428Y-96329571D02*
X149454428Y-94829571D01*
X148954428Y-96329571D01*
X148454428Y-96329571D02*
X148454428Y-94829571D01*
X148454428Y-95543857D02*
X147597285Y-95543857D01*
X147597285Y-96329571D02*
X147597285Y-94829571D01*
X146883000Y-96329571D02*
X146883000Y-94829571D01*
X146168714Y-96329571D02*
X146168714Y-94829571D01*
X145311571Y-96329571D01*
X145311571Y-94829571D01*
X143454428Y-96329571D02*
X143454428Y-94829571D01*
X142954428Y-95901000D01*
X142454428Y-94829571D01*
X142454428Y-96329571D01*
X141097285Y-96329571D02*
X141097285Y-95543857D01*
X141168714Y-95401000D01*
X141311571Y-95329571D01*
X141597285Y-95329571D01*
X141740142Y-95401000D01*
X141097285Y-96258142D02*
X141240142Y-96329571D01*
X141597285Y-96329571D01*
X141740142Y-96258142D01*
X141811571Y-96115285D01*
X141811571Y-95972428D01*
X141740142Y-95829571D01*
X141597285Y-95758142D01*
X141240142Y-95758142D01*
X141097285Y-95686714D01*
X140597285Y-95329571D02*
X140025857Y-95329571D01*
X140383000Y-94829571D02*
X140383000Y-96115285D01*
X140311571Y-96258142D01*
X140168714Y-96329571D01*
X140025857Y-96329571D01*
X139525857Y-96329571D02*
X139525857Y-94829571D01*
X138883000Y-96329571D02*
X138883000Y-95543857D01*
X138954428Y-95401000D01*
X139097285Y-95329571D01*
X139311571Y-95329571D01*
X139454428Y-95401000D01*
X139525857Y-95472428D01*
X138168714Y-96329571D02*
X138168714Y-95329571D01*
X138168714Y-94829571D02*
X138240142Y-94901000D01*
X138168714Y-94972428D01*
X138097285Y-94901000D01*
X138168714Y-94829571D01*
X138168714Y-94972428D01*
X136883000Y-96258142D02*
X137025857Y-96329571D01*
X137311571Y-96329571D01*
X137454428Y-96258142D01*
X137525857Y-96115285D01*
X137525857Y-95543857D01*
X137454428Y-95401000D01*
X137311571Y-95329571D01*
X137025857Y-95329571D01*
X136883000Y-95401000D01*
X136811571Y-95543857D01*
X136811571Y-95686714D01*
X137525857Y-95829571D01*
X135525857Y-95329571D02*
X135525857Y-96329571D01*
X136168714Y-95329571D02*
X136168714Y-96115285D01*
X136097285Y-96258142D01*
X135954428Y-96329571D01*
X135740142Y-96329571D01*
X135597285Y-96258142D01*
X135525857Y-96186714D01*
X159454428Y-98043857D02*
X159240142Y-98115285D01*
X159168714Y-98186714D01*
X159097285Y-98329571D01*
X159097285Y-98543857D01*
X159168714Y-98686714D01*
X159240142Y-98758142D01*
X159383000Y-98829571D01*
X159954428Y-98829571D01*
X159954428Y-97329571D01*
X159454428Y-97329571D01*
X159311571Y-97401000D01*
X159240142Y-97472428D01*
X159168714Y-97615285D01*
X159168714Y-97758142D01*
X159240142Y-97901000D01*
X159311571Y-97972428D01*
X159454428Y-98043857D01*
X159954428Y-98043857D01*
X157811571Y-98829571D02*
X157811571Y-98043857D01*
X157883000Y-97901000D01*
X158025857Y-97829571D01*
X158311571Y-97829571D01*
X158454428Y-97901000D01*
X157811571Y-98758142D02*
X157954428Y-98829571D01*
X158311571Y-98829571D01*
X158454428Y-98758142D01*
X158525857Y-98615285D01*
X158525857Y-98472428D01*
X158454428Y-98329571D01*
X158311571Y-98258142D01*
X157954428Y-98258142D01*
X157811571Y-98186714D01*
X157168714Y-98758142D02*
X157025857Y-98829571D01*
X156740142Y-98829571D01*
X156597285Y-98758142D01*
X156525857Y-98615285D01*
X156525857Y-98543857D01*
X156597285Y-98401000D01*
X156740142Y-98329571D01*
X156954428Y-98329571D01*
X157097285Y-98258142D01*
X157168714Y-98115285D01*
X157168714Y-98043857D01*
X157097285Y-97901000D01*
X156954428Y-97829571D01*
X156740142Y-97829571D01*
X156597285Y-97901000D01*
X155311571Y-98758142D02*
X155454428Y-98829571D01*
X155740142Y-98829571D01*
X155883000Y-98758142D01*
X155954428Y-98615285D01*
X155954428Y-98043857D01*
X155883000Y-97901000D01*
X155740142Y-97829571D01*
X155454428Y-97829571D01*
X155311571Y-97901000D01*
X155240142Y-98043857D01*
X155240142Y-98186714D01*
X155954428Y-98329571D01*
X153954428Y-98829571D02*
X153954428Y-97329571D01*
X153954428Y-98758142D02*
X154097285Y-98829571D01*
X154383000Y-98829571D01*
X154525857Y-98758142D01*
X154597285Y-98686714D01*
X154668714Y-98543857D01*
X154668714Y-98115285D01*
X154597285Y-97972428D01*
X154525857Y-97901000D01*
X154383000Y-97829571D01*
X154097285Y-97829571D01*
X153954428Y-97901000D01*
X151883000Y-98829571D02*
X152025857Y-98758142D01*
X152097285Y-98686714D01*
X152168714Y-98543857D01*
X152168714Y-98115285D01*
X152097285Y-97972428D01*
X152025857Y-97901000D01*
X151883000Y-97829571D01*
X151668714Y-97829571D01*
X151525857Y-97901000D01*
X151454428Y-97972428D01*
X151383000Y-98115285D01*
X151383000Y-98543857D01*
X151454428Y-98686714D01*
X151525857Y-98758142D01*
X151668714Y-98829571D01*
X151883000Y-98829571D01*
X150740142Y-97829571D02*
X150740142Y-98829571D01*
X150740142Y-97972428D02*
X150668714Y-97901000D01*
X150525857Y-97829571D01*
X150311571Y-97829571D01*
X150168714Y-97901000D01*
X150097285Y-98043857D01*
X150097285Y-98829571D01*
X148454428Y-97329571D02*
X147597285Y-97329571D01*
X148025857Y-98829571D02*
X148025857Y-97329571D01*
X147097285Y-98829571D02*
X147097285Y-97329571D01*
X146454428Y-98829571D02*
X146454428Y-98043857D01*
X146525857Y-97901000D01*
X146668714Y-97829571D01*
X146883000Y-97829571D01*
X147025857Y-97901000D01*
X147097285Y-97972428D01*
X145740142Y-98829571D02*
X145740142Y-97829571D01*
X145740142Y-98115285D02*
X145668714Y-97972428D01*
X145597285Y-97901000D01*
X145454428Y-97829571D01*
X145311571Y-97829571D01*
X144240142Y-98758142D02*
X144383000Y-98829571D01*
X144668714Y-98829571D01*
X144811571Y-98758142D01*
X144883000Y-98615285D01*
X144883000Y-98043857D01*
X144811571Y-97901000D01*
X144668714Y-97829571D01*
X144383000Y-97829571D01*
X144240142Y-97901000D01*
X144168714Y-98043857D01*
X144168714Y-98186714D01*
X144883000Y-98329571D01*
X142954428Y-98758142D02*
X143097285Y-98829571D01*
X143383000Y-98829571D01*
X143525857Y-98758142D01*
X143597285Y-98615285D01*
X143597285Y-98043857D01*
X143525857Y-97901000D01*
X143383000Y-97829571D01*
X143097285Y-97829571D01*
X142954428Y-97901000D01*
X142883000Y-98043857D01*
X142883000Y-98186714D01*
X143597285Y-98329571D01*
X142240142Y-98829571D02*
X142240142Y-97329571D01*
X141383000Y-98829571D01*
X141383000Y-97329571D01*
X140097285Y-98758142D02*
X140240142Y-98829571D01*
X140525857Y-98829571D01*
X140668714Y-98758142D01*
X140740142Y-98615285D01*
X140740142Y-98043857D01*
X140668714Y-97901000D01*
X140525857Y-97829571D01*
X140240142Y-97829571D01*
X140097285Y-97901000D01*
X140025857Y-98043857D01*
X140025857Y-98186714D01*
X140740142Y-98329571D01*
X138740142Y-97829571D02*
X138740142Y-98829571D01*
X139383000Y-97829571D02*
X139383000Y-98615285D01*
X139311571Y-98758142D01*
X139168714Y-98829571D01*
X138954428Y-98829571D01*
X138811571Y-98758142D01*
X138740142Y-98686714D01*
X138025857Y-98829571D02*
X138025857Y-97829571D01*
X138025857Y-98115285D02*
X137954428Y-97972428D01*
X137883000Y-97901000D01*
X137740142Y-97829571D01*
X137597285Y-97829571D01*
X136883000Y-98829571D02*
X137025857Y-98758142D01*
X137097285Y-98686714D01*
X137168714Y-98543857D01*
X137168714Y-98115285D01*
X137097285Y-97972428D01*
X137025857Y-97901000D01*
X136883000Y-97829571D01*
X136668714Y-97829571D01*
X136525857Y-97901000D01*
X136454428Y-97972428D01*
X136383000Y-98115285D01*
X136383000Y-98543857D01*
X136454428Y-98686714D01*
X136525857Y-98758142D01*
X136668714Y-98829571D01*
X136883000Y-98829571D01*
X135740142Y-97829571D02*
X135740142Y-98829571D01*
X135740142Y-97972428D02*
X135668714Y-97901000D01*
X135525857Y-97829571D01*
X135311571Y-97829571D01*
X135168714Y-97901000D01*
X135097285Y-98043857D01*
X135097285Y-98829571D01*
X134454428Y-98758142D02*
X134311571Y-98829571D01*
X134025857Y-98829571D01*
X133883000Y-98758142D01*
X133811571Y-98615285D01*
X133811571Y-98543857D01*
X133883000Y-98401000D01*
X134025857Y-98329571D01*
X134240142Y-98329571D01*
X134383000Y-98258142D01*
X134454428Y-98115285D01*
X134454428Y-98043857D01*
X134383000Y-97901000D01*
X134240142Y-97829571D01*
X134025857Y-97829571D01*
X133883000Y-97901000D01*
X132025857Y-98829571D02*
X132025857Y-97329571D01*
X131168714Y-98829571D01*
X131168714Y-97329571D01*
X130454428Y-98829571D02*
X130454428Y-97329571D01*
X129597285Y-98829571D02*
X130240142Y-97972428D01*
X129597285Y-97329571D02*
X130454428Y-98186714D01*
X128668714Y-97329571D02*
X128525857Y-97329571D01*
X128383000Y-97401000D01*
X128311571Y-97472428D01*
X128240142Y-97615285D01*
X128168714Y-97901000D01*
X128168714Y-98258142D01*
X128240142Y-98543857D01*
X128311571Y-98686714D01*
X128383000Y-98758142D01*
X128525857Y-98829571D01*
X128668714Y-98829571D01*
X128811571Y-98758142D01*
X128883000Y-98686714D01*
X128954428Y-98543857D01*
X129025857Y-98258142D01*
X129025857Y-97901000D01*
X128954428Y-97615285D01*
X128883000Y-97472428D01*
X128811571Y-97401000D01*
X128668714Y-97329571D01*
X127597285Y-97472428D02*
X127525857Y-97401000D01*
X127383000Y-97329571D01*
X127025857Y-97329571D01*
X126883000Y-97401000D01*
X126811571Y-97472428D01*
X126740142Y-97615285D01*
X126740142Y-97758142D01*
X126811571Y-97972428D01*
X127668714Y-98829571D01*
X126740142Y-98829571D01*
M02*
