%TF.GenerationSoftware,KiCad,Pcbnew,(5.1.8)-1*%
%TF.CreationDate,2022-04-01T10:58:03+02:00*%
%TF.ProjectId,HVPowerSupply,4856506f-7765-4725-9375-70706c792e6b,0*%
%TF.SameCoordinates,Original*%
%TF.FileFunction,Copper,L2,Bot*%
%TF.FilePolarity,Positive*%
%FSLAX46Y46*%
G04 Gerber Fmt 4.6, Leading zero omitted, Abs format (unit mm)*
G04 Created by KiCad (PCBNEW (5.1.8)-1) date 2022-04-01 10:58:03*
%MOMM*%
%LPD*%
G01*
G04 APERTURE LIST*
%TA.AperFunction,ComponentPad*%
%ADD10C,3.000000*%
%TD*%
%TA.AperFunction,ComponentPad*%
%ADD11R,3.000000X3.000000*%
%TD*%
%TA.AperFunction,ViaPad*%
%ADD12C,0.800000*%
%TD*%
%TA.AperFunction,Conductor*%
%ADD13C,0.250000*%
%TD*%
%TA.AperFunction,Conductor*%
%ADD14C,0.254000*%
%TD*%
%TA.AperFunction,Conductor*%
%ADD15C,0.100000*%
%TD*%
G04 APERTURE END LIST*
D10*
%TO.P,J2,2*%
%TO.N,Net-(C10-Pad1)*%
X113157000Y-103251000D03*
D11*
%TO.P,J2,1*%
%TO.N,GND*%
X113157000Y-108331000D03*
%TD*%
D10*
%TO.P,J1,2*%
%TO.N,Net-(F1-Pad2)*%
X173926500Y-100012500D03*
D11*
%TO.P,J1,1*%
%TO.N,GND*%
X173926500Y-105092500D03*
%TD*%
D12*
%TO.N,GND*%
X121285000Y-110236000D03*
X114236500Y-112522000D03*
X116014500Y-114046000D03*
X110934500Y-113093500D03*
X110998000Y-117094000D03*
X129603500Y-113728500D03*
X127444500Y-110172500D03*
X124587000Y-106235500D03*
X127190500Y-106299000D03*
X121348500Y-106362500D03*
X118427500Y-97726500D03*
X119888000Y-96012000D03*
X131699000Y-98044000D03*
X129667000Y-95821500D03*
X163449000Y-112204500D03*
X164211000Y-110871000D03*
X166878000Y-120269000D03*
X169100500Y-120269000D03*
X171767500Y-116459000D03*
X155702000Y-110998000D03*
X153797000Y-110998000D03*
X151892000Y-110998000D03*
X149987000Y-110998000D03*
X149987000Y-112903000D03*
X151892000Y-112903000D03*
X153797000Y-112903000D03*
X155702000Y-112903000D03*
X155702000Y-114808000D03*
X153797000Y-114808000D03*
X151892000Y-114808000D03*
X149987000Y-114808000D03*
X155702000Y-116713000D03*
X148082000Y-112903000D03*
X146177000Y-112903000D03*
X144272000Y-112903000D03*
X171831000Y-122428000D03*
X162306000Y-120142000D03*
X165227000Y-108712000D03*
X163322000Y-108585000D03*
X167132000Y-108585000D03*
X168783000Y-108585000D03*
%TO.N,Net-(L1-Pad1)*%
X166025145Y-101451515D03*
X161909182Y-100345818D03*
%TD*%
D13*
%TO.N,Net-(L1-Pad1)*%
X163014879Y-101451515D02*
X161909182Y-100345818D01*
X166025145Y-101451515D02*
X163014879Y-101451515D01*
%TD*%
D14*
%TO.N,GND*%
X183515000Y-123571000D02*
X181132705Y-123571000D01*
X181182425Y-123561110D01*
X181589169Y-123392631D01*
X181955229Y-123148038D01*
X182266538Y-122836729D01*
X182511131Y-122470669D01*
X182679610Y-122063925D01*
X182765500Y-121632128D01*
X182765500Y-121191872D01*
X182679610Y-120760075D01*
X182511131Y-120353331D01*
X182266538Y-119987271D01*
X181955229Y-119675962D01*
X181589169Y-119431369D01*
X181182425Y-119262890D01*
X180750628Y-119177000D01*
X180310372Y-119177000D01*
X179878575Y-119262890D01*
X179471831Y-119431369D01*
X179105771Y-119675962D01*
X178794462Y-119987271D01*
X178549869Y-120353331D01*
X178381390Y-120760075D01*
X178295500Y-121191872D01*
X178295500Y-121632128D01*
X178381390Y-122063925D01*
X178549869Y-122470669D01*
X178794462Y-122836729D01*
X179105771Y-123148038D01*
X179471831Y-123392631D01*
X179878575Y-123561110D01*
X179928295Y-123571000D01*
X112552705Y-123571000D01*
X112602425Y-123561110D01*
X113009169Y-123392631D01*
X113375229Y-123148038D01*
X113686538Y-122836729D01*
X113931131Y-122470669D01*
X114099610Y-122063925D01*
X114185500Y-121632128D01*
X114185500Y-121191872D01*
X114099610Y-120760075D01*
X113931131Y-120353331D01*
X113686538Y-119987271D01*
X113375229Y-119675962D01*
X113009169Y-119431369D01*
X112602425Y-119262890D01*
X112170628Y-119177000D01*
X111730372Y-119177000D01*
X111298575Y-119262890D01*
X110891831Y-119431369D01*
X110525771Y-119675962D01*
X110214462Y-119987271D01*
X109969869Y-120353331D01*
X109801390Y-120760075D01*
X109715500Y-121191872D01*
X109715500Y-121632128D01*
X109801390Y-122063925D01*
X109969869Y-122470669D01*
X110214462Y-122836729D01*
X110525771Y-123148038D01*
X110891831Y-123392631D01*
X111298575Y-123561110D01*
X111348295Y-123571000D01*
X108204000Y-123571000D01*
X108204000Y-109831000D01*
X111018928Y-109831000D01*
X111031188Y-109955482D01*
X111067498Y-110075180D01*
X111126463Y-110185494D01*
X111205815Y-110282185D01*
X111302506Y-110361537D01*
X111412820Y-110420502D01*
X111532518Y-110456812D01*
X111657000Y-110469072D01*
X112871250Y-110466000D01*
X113030000Y-110307250D01*
X113030000Y-108458000D01*
X113284000Y-108458000D01*
X113284000Y-110307250D01*
X113442750Y-110466000D01*
X114657000Y-110469072D01*
X114781482Y-110456812D01*
X114901180Y-110420502D01*
X115011494Y-110361537D01*
X115108185Y-110282185D01*
X115187537Y-110185494D01*
X115246502Y-110075180D01*
X115282812Y-109955482D01*
X115295072Y-109831000D01*
X115292000Y-108616750D01*
X115133250Y-108458000D01*
X113284000Y-108458000D01*
X113030000Y-108458000D01*
X111180750Y-108458000D01*
X111022000Y-108616750D01*
X111018928Y-109831000D01*
X108204000Y-109831000D01*
X108204000Y-106831000D01*
X111018928Y-106831000D01*
X111022000Y-108045250D01*
X111180750Y-108204000D01*
X113030000Y-108204000D01*
X113030000Y-106354750D01*
X113284000Y-106354750D01*
X113284000Y-108204000D01*
X115133250Y-108204000D01*
X115292000Y-108045250D01*
X115295072Y-106831000D01*
X115282812Y-106706518D01*
X115248226Y-106592500D01*
X171788428Y-106592500D01*
X171800688Y-106716982D01*
X171836998Y-106836680D01*
X171895963Y-106946994D01*
X171975315Y-107043685D01*
X172072006Y-107123037D01*
X172182320Y-107182002D01*
X172302018Y-107218312D01*
X172426500Y-107230572D01*
X173640750Y-107227500D01*
X173799500Y-107068750D01*
X173799500Y-105219500D01*
X174053500Y-105219500D01*
X174053500Y-107068750D01*
X174212250Y-107227500D01*
X175426500Y-107230572D01*
X175550982Y-107218312D01*
X175670680Y-107182002D01*
X175780994Y-107123037D01*
X175877685Y-107043685D01*
X175957037Y-106946994D01*
X176016002Y-106836680D01*
X176052312Y-106716982D01*
X176064572Y-106592500D01*
X176061500Y-105378250D01*
X175902750Y-105219500D01*
X174053500Y-105219500D01*
X173799500Y-105219500D01*
X171950250Y-105219500D01*
X171791500Y-105378250D01*
X171788428Y-106592500D01*
X115248226Y-106592500D01*
X115246502Y-106586820D01*
X115187537Y-106476506D01*
X115108185Y-106379815D01*
X115011494Y-106300463D01*
X114901180Y-106241498D01*
X114781482Y-106205188D01*
X114657000Y-106192928D01*
X113442750Y-106196000D01*
X113284000Y-106354750D01*
X113030000Y-106354750D01*
X112871250Y-106196000D01*
X111657000Y-106192928D01*
X111532518Y-106205188D01*
X111412820Y-106241498D01*
X111302506Y-106300463D01*
X111205815Y-106379815D01*
X111126463Y-106476506D01*
X111067498Y-106586820D01*
X111031188Y-106706518D01*
X111018928Y-106831000D01*
X108204000Y-106831000D01*
X108204000Y-103040721D01*
X111022000Y-103040721D01*
X111022000Y-103461279D01*
X111104047Y-103873756D01*
X111264988Y-104262302D01*
X111498637Y-104611983D01*
X111796017Y-104909363D01*
X112145698Y-105143012D01*
X112534244Y-105303953D01*
X112946721Y-105386000D01*
X113367279Y-105386000D01*
X113779756Y-105303953D01*
X114168302Y-105143012D01*
X114517983Y-104909363D01*
X114815363Y-104611983D01*
X115049012Y-104262302D01*
X115209953Y-103873756D01*
X115265898Y-103592500D01*
X171788428Y-103592500D01*
X171791500Y-104806750D01*
X171950250Y-104965500D01*
X173799500Y-104965500D01*
X173799500Y-103116250D01*
X174053500Y-103116250D01*
X174053500Y-104965500D01*
X175902750Y-104965500D01*
X176061500Y-104806750D01*
X176064572Y-103592500D01*
X176052312Y-103468018D01*
X176016002Y-103348320D01*
X175957037Y-103238006D01*
X175877685Y-103141315D01*
X175780994Y-103061963D01*
X175670680Y-103002998D01*
X175550982Y-102966688D01*
X175426500Y-102954428D01*
X174212250Y-102957500D01*
X174053500Y-103116250D01*
X173799500Y-103116250D01*
X173640750Y-102957500D01*
X172426500Y-102954428D01*
X172302018Y-102966688D01*
X172182320Y-103002998D01*
X172072006Y-103061963D01*
X171975315Y-103141315D01*
X171895963Y-103238006D01*
X171836998Y-103348320D01*
X171800688Y-103468018D01*
X171788428Y-103592500D01*
X115265898Y-103592500D01*
X115292000Y-103461279D01*
X115292000Y-103040721D01*
X115209953Y-102628244D01*
X115049012Y-102239698D01*
X114815363Y-101890017D01*
X114517983Y-101592637D01*
X114168302Y-101358988D01*
X113779756Y-101198047D01*
X113367279Y-101116000D01*
X112946721Y-101116000D01*
X112534244Y-101198047D01*
X112145698Y-101358988D01*
X111796017Y-101592637D01*
X111498637Y-101890017D01*
X111264988Y-102239698D01*
X111104047Y-102628244D01*
X111022000Y-103040721D01*
X108204000Y-103040721D01*
X108204000Y-100243879D01*
X160874182Y-100243879D01*
X160874182Y-100447757D01*
X160913956Y-100647716D01*
X160991977Y-100836074D01*
X161105245Y-101005592D01*
X161249408Y-101149755D01*
X161418926Y-101263023D01*
X161607284Y-101341044D01*
X161807243Y-101380818D01*
X161869381Y-101380818D01*
X162451080Y-101962518D01*
X162474878Y-101991516D01*
X162590603Y-102086489D01*
X162722632Y-102157061D01*
X162865893Y-102200518D01*
X162977546Y-102211515D01*
X162977554Y-102211515D01*
X163014879Y-102215191D01*
X163052204Y-102211515D01*
X165321434Y-102211515D01*
X165365371Y-102255452D01*
X165534889Y-102368720D01*
X165723247Y-102446741D01*
X165923206Y-102486515D01*
X166127084Y-102486515D01*
X166327043Y-102446741D01*
X166515401Y-102368720D01*
X166684919Y-102255452D01*
X166829082Y-102111289D01*
X166942350Y-101941771D01*
X167020371Y-101753413D01*
X167060145Y-101553454D01*
X167060145Y-101349576D01*
X167020371Y-101149617D01*
X166942350Y-100961259D01*
X166829082Y-100791741D01*
X166684919Y-100647578D01*
X166515401Y-100534310D01*
X166327043Y-100456289D01*
X166127084Y-100416515D01*
X165923206Y-100416515D01*
X165723247Y-100456289D01*
X165534889Y-100534310D01*
X165365371Y-100647578D01*
X165321434Y-100691515D01*
X163329681Y-100691515D01*
X162944182Y-100306017D01*
X162944182Y-100243879D01*
X162904408Y-100043920D01*
X162826387Y-99855562D01*
X162790746Y-99802221D01*
X171791500Y-99802221D01*
X171791500Y-100222779D01*
X171873547Y-100635256D01*
X172034488Y-101023802D01*
X172268137Y-101373483D01*
X172565517Y-101670863D01*
X172915198Y-101904512D01*
X173303744Y-102065453D01*
X173716221Y-102147500D01*
X174136779Y-102147500D01*
X174549256Y-102065453D01*
X174937802Y-101904512D01*
X175287483Y-101670863D01*
X175584863Y-101373483D01*
X175818512Y-101023802D01*
X175979453Y-100635256D01*
X176061500Y-100222779D01*
X176061500Y-99802221D01*
X175979453Y-99389744D01*
X175818512Y-99001198D01*
X175584863Y-98651517D01*
X175287483Y-98354137D01*
X174937802Y-98120488D01*
X174549256Y-97959547D01*
X174136779Y-97877500D01*
X173716221Y-97877500D01*
X173303744Y-97959547D01*
X172915198Y-98120488D01*
X172565517Y-98354137D01*
X172268137Y-98651517D01*
X172034488Y-99001198D01*
X171873547Y-99389744D01*
X171791500Y-99802221D01*
X162790746Y-99802221D01*
X162713119Y-99686044D01*
X162568956Y-99541881D01*
X162399438Y-99428613D01*
X162211080Y-99350592D01*
X162011121Y-99310818D01*
X161807243Y-99310818D01*
X161607284Y-99350592D01*
X161418926Y-99428613D01*
X161249408Y-99541881D01*
X161105245Y-99686044D01*
X160991977Y-99855562D01*
X160913956Y-100043920D01*
X160874182Y-100243879D01*
X108204000Y-100243879D01*
X108204000Y-95601372D01*
X109715500Y-95601372D01*
X109715500Y-96041628D01*
X109801390Y-96473425D01*
X109969869Y-96880169D01*
X110214462Y-97246229D01*
X110525771Y-97557538D01*
X110891831Y-97802131D01*
X111298575Y-97970610D01*
X111730372Y-98056500D01*
X112170628Y-98056500D01*
X112602425Y-97970610D01*
X113009169Y-97802131D01*
X113375229Y-97557538D01*
X113686538Y-97246229D01*
X113931131Y-96880169D01*
X114099610Y-96473425D01*
X114185500Y-96041628D01*
X114185500Y-95601372D01*
X178295500Y-95601372D01*
X178295500Y-96041628D01*
X178381390Y-96473425D01*
X178549869Y-96880169D01*
X178794462Y-97246229D01*
X179105771Y-97557538D01*
X179471831Y-97802131D01*
X179878575Y-97970610D01*
X180310372Y-98056500D01*
X180750628Y-98056500D01*
X181182425Y-97970610D01*
X181589169Y-97802131D01*
X181955229Y-97557538D01*
X182266538Y-97246229D01*
X182511131Y-96880169D01*
X182679610Y-96473425D01*
X182765500Y-96041628D01*
X182765500Y-95601372D01*
X182679610Y-95169575D01*
X182511131Y-94762831D01*
X182266538Y-94396771D01*
X181955229Y-94085462D01*
X181589169Y-93840869D01*
X181182425Y-93672390D01*
X180750628Y-93586500D01*
X180310372Y-93586500D01*
X179878575Y-93672390D01*
X179471831Y-93840869D01*
X179105771Y-94085462D01*
X178794462Y-94396771D01*
X178549869Y-94762831D01*
X178381390Y-95169575D01*
X178295500Y-95601372D01*
X114185500Y-95601372D01*
X114099610Y-95169575D01*
X113931131Y-94762831D01*
X113686538Y-94396771D01*
X113375229Y-94085462D01*
X113009169Y-93840869D01*
X112602425Y-93672390D01*
X112170628Y-93586500D01*
X111730372Y-93586500D01*
X111298575Y-93672390D01*
X110891831Y-93840869D01*
X110525771Y-94085462D01*
X110214462Y-94396771D01*
X109969869Y-94762831D01*
X109801390Y-95169575D01*
X109715500Y-95601372D01*
X108204000Y-95601372D01*
X108204000Y-93345000D01*
X183515000Y-93345000D01*
X183515000Y-123571000D01*
%TA.AperFunction,Conductor*%
D15*
G36*
X183515000Y-123571000D02*
G01*
X181132705Y-123571000D01*
X181182425Y-123561110D01*
X181589169Y-123392631D01*
X181955229Y-123148038D01*
X182266538Y-122836729D01*
X182511131Y-122470669D01*
X182679610Y-122063925D01*
X182765500Y-121632128D01*
X182765500Y-121191872D01*
X182679610Y-120760075D01*
X182511131Y-120353331D01*
X182266538Y-119987271D01*
X181955229Y-119675962D01*
X181589169Y-119431369D01*
X181182425Y-119262890D01*
X180750628Y-119177000D01*
X180310372Y-119177000D01*
X179878575Y-119262890D01*
X179471831Y-119431369D01*
X179105771Y-119675962D01*
X178794462Y-119987271D01*
X178549869Y-120353331D01*
X178381390Y-120760075D01*
X178295500Y-121191872D01*
X178295500Y-121632128D01*
X178381390Y-122063925D01*
X178549869Y-122470669D01*
X178794462Y-122836729D01*
X179105771Y-123148038D01*
X179471831Y-123392631D01*
X179878575Y-123561110D01*
X179928295Y-123571000D01*
X112552705Y-123571000D01*
X112602425Y-123561110D01*
X113009169Y-123392631D01*
X113375229Y-123148038D01*
X113686538Y-122836729D01*
X113931131Y-122470669D01*
X114099610Y-122063925D01*
X114185500Y-121632128D01*
X114185500Y-121191872D01*
X114099610Y-120760075D01*
X113931131Y-120353331D01*
X113686538Y-119987271D01*
X113375229Y-119675962D01*
X113009169Y-119431369D01*
X112602425Y-119262890D01*
X112170628Y-119177000D01*
X111730372Y-119177000D01*
X111298575Y-119262890D01*
X110891831Y-119431369D01*
X110525771Y-119675962D01*
X110214462Y-119987271D01*
X109969869Y-120353331D01*
X109801390Y-120760075D01*
X109715500Y-121191872D01*
X109715500Y-121632128D01*
X109801390Y-122063925D01*
X109969869Y-122470669D01*
X110214462Y-122836729D01*
X110525771Y-123148038D01*
X110891831Y-123392631D01*
X111298575Y-123561110D01*
X111348295Y-123571000D01*
X108204000Y-123571000D01*
X108204000Y-109831000D01*
X111018928Y-109831000D01*
X111031188Y-109955482D01*
X111067498Y-110075180D01*
X111126463Y-110185494D01*
X111205815Y-110282185D01*
X111302506Y-110361537D01*
X111412820Y-110420502D01*
X111532518Y-110456812D01*
X111657000Y-110469072D01*
X112871250Y-110466000D01*
X113030000Y-110307250D01*
X113030000Y-108458000D01*
X113284000Y-108458000D01*
X113284000Y-110307250D01*
X113442750Y-110466000D01*
X114657000Y-110469072D01*
X114781482Y-110456812D01*
X114901180Y-110420502D01*
X115011494Y-110361537D01*
X115108185Y-110282185D01*
X115187537Y-110185494D01*
X115246502Y-110075180D01*
X115282812Y-109955482D01*
X115295072Y-109831000D01*
X115292000Y-108616750D01*
X115133250Y-108458000D01*
X113284000Y-108458000D01*
X113030000Y-108458000D01*
X111180750Y-108458000D01*
X111022000Y-108616750D01*
X111018928Y-109831000D01*
X108204000Y-109831000D01*
X108204000Y-106831000D01*
X111018928Y-106831000D01*
X111022000Y-108045250D01*
X111180750Y-108204000D01*
X113030000Y-108204000D01*
X113030000Y-106354750D01*
X113284000Y-106354750D01*
X113284000Y-108204000D01*
X115133250Y-108204000D01*
X115292000Y-108045250D01*
X115295072Y-106831000D01*
X115282812Y-106706518D01*
X115248226Y-106592500D01*
X171788428Y-106592500D01*
X171800688Y-106716982D01*
X171836998Y-106836680D01*
X171895963Y-106946994D01*
X171975315Y-107043685D01*
X172072006Y-107123037D01*
X172182320Y-107182002D01*
X172302018Y-107218312D01*
X172426500Y-107230572D01*
X173640750Y-107227500D01*
X173799500Y-107068750D01*
X173799500Y-105219500D01*
X174053500Y-105219500D01*
X174053500Y-107068750D01*
X174212250Y-107227500D01*
X175426500Y-107230572D01*
X175550982Y-107218312D01*
X175670680Y-107182002D01*
X175780994Y-107123037D01*
X175877685Y-107043685D01*
X175957037Y-106946994D01*
X176016002Y-106836680D01*
X176052312Y-106716982D01*
X176064572Y-106592500D01*
X176061500Y-105378250D01*
X175902750Y-105219500D01*
X174053500Y-105219500D01*
X173799500Y-105219500D01*
X171950250Y-105219500D01*
X171791500Y-105378250D01*
X171788428Y-106592500D01*
X115248226Y-106592500D01*
X115246502Y-106586820D01*
X115187537Y-106476506D01*
X115108185Y-106379815D01*
X115011494Y-106300463D01*
X114901180Y-106241498D01*
X114781482Y-106205188D01*
X114657000Y-106192928D01*
X113442750Y-106196000D01*
X113284000Y-106354750D01*
X113030000Y-106354750D01*
X112871250Y-106196000D01*
X111657000Y-106192928D01*
X111532518Y-106205188D01*
X111412820Y-106241498D01*
X111302506Y-106300463D01*
X111205815Y-106379815D01*
X111126463Y-106476506D01*
X111067498Y-106586820D01*
X111031188Y-106706518D01*
X111018928Y-106831000D01*
X108204000Y-106831000D01*
X108204000Y-103040721D01*
X111022000Y-103040721D01*
X111022000Y-103461279D01*
X111104047Y-103873756D01*
X111264988Y-104262302D01*
X111498637Y-104611983D01*
X111796017Y-104909363D01*
X112145698Y-105143012D01*
X112534244Y-105303953D01*
X112946721Y-105386000D01*
X113367279Y-105386000D01*
X113779756Y-105303953D01*
X114168302Y-105143012D01*
X114517983Y-104909363D01*
X114815363Y-104611983D01*
X115049012Y-104262302D01*
X115209953Y-103873756D01*
X115265898Y-103592500D01*
X171788428Y-103592500D01*
X171791500Y-104806750D01*
X171950250Y-104965500D01*
X173799500Y-104965500D01*
X173799500Y-103116250D01*
X174053500Y-103116250D01*
X174053500Y-104965500D01*
X175902750Y-104965500D01*
X176061500Y-104806750D01*
X176064572Y-103592500D01*
X176052312Y-103468018D01*
X176016002Y-103348320D01*
X175957037Y-103238006D01*
X175877685Y-103141315D01*
X175780994Y-103061963D01*
X175670680Y-103002998D01*
X175550982Y-102966688D01*
X175426500Y-102954428D01*
X174212250Y-102957500D01*
X174053500Y-103116250D01*
X173799500Y-103116250D01*
X173640750Y-102957500D01*
X172426500Y-102954428D01*
X172302018Y-102966688D01*
X172182320Y-103002998D01*
X172072006Y-103061963D01*
X171975315Y-103141315D01*
X171895963Y-103238006D01*
X171836998Y-103348320D01*
X171800688Y-103468018D01*
X171788428Y-103592500D01*
X115265898Y-103592500D01*
X115292000Y-103461279D01*
X115292000Y-103040721D01*
X115209953Y-102628244D01*
X115049012Y-102239698D01*
X114815363Y-101890017D01*
X114517983Y-101592637D01*
X114168302Y-101358988D01*
X113779756Y-101198047D01*
X113367279Y-101116000D01*
X112946721Y-101116000D01*
X112534244Y-101198047D01*
X112145698Y-101358988D01*
X111796017Y-101592637D01*
X111498637Y-101890017D01*
X111264988Y-102239698D01*
X111104047Y-102628244D01*
X111022000Y-103040721D01*
X108204000Y-103040721D01*
X108204000Y-100243879D01*
X160874182Y-100243879D01*
X160874182Y-100447757D01*
X160913956Y-100647716D01*
X160991977Y-100836074D01*
X161105245Y-101005592D01*
X161249408Y-101149755D01*
X161418926Y-101263023D01*
X161607284Y-101341044D01*
X161807243Y-101380818D01*
X161869381Y-101380818D01*
X162451080Y-101962518D01*
X162474878Y-101991516D01*
X162590603Y-102086489D01*
X162722632Y-102157061D01*
X162865893Y-102200518D01*
X162977546Y-102211515D01*
X162977554Y-102211515D01*
X163014879Y-102215191D01*
X163052204Y-102211515D01*
X165321434Y-102211515D01*
X165365371Y-102255452D01*
X165534889Y-102368720D01*
X165723247Y-102446741D01*
X165923206Y-102486515D01*
X166127084Y-102486515D01*
X166327043Y-102446741D01*
X166515401Y-102368720D01*
X166684919Y-102255452D01*
X166829082Y-102111289D01*
X166942350Y-101941771D01*
X167020371Y-101753413D01*
X167060145Y-101553454D01*
X167060145Y-101349576D01*
X167020371Y-101149617D01*
X166942350Y-100961259D01*
X166829082Y-100791741D01*
X166684919Y-100647578D01*
X166515401Y-100534310D01*
X166327043Y-100456289D01*
X166127084Y-100416515D01*
X165923206Y-100416515D01*
X165723247Y-100456289D01*
X165534889Y-100534310D01*
X165365371Y-100647578D01*
X165321434Y-100691515D01*
X163329681Y-100691515D01*
X162944182Y-100306017D01*
X162944182Y-100243879D01*
X162904408Y-100043920D01*
X162826387Y-99855562D01*
X162790746Y-99802221D01*
X171791500Y-99802221D01*
X171791500Y-100222779D01*
X171873547Y-100635256D01*
X172034488Y-101023802D01*
X172268137Y-101373483D01*
X172565517Y-101670863D01*
X172915198Y-101904512D01*
X173303744Y-102065453D01*
X173716221Y-102147500D01*
X174136779Y-102147500D01*
X174549256Y-102065453D01*
X174937802Y-101904512D01*
X175287483Y-101670863D01*
X175584863Y-101373483D01*
X175818512Y-101023802D01*
X175979453Y-100635256D01*
X176061500Y-100222779D01*
X176061500Y-99802221D01*
X175979453Y-99389744D01*
X175818512Y-99001198D01*
X175584863Y-98651517D01*
X175287483Y-98354137D01*
X174937802Y-98120488D01*
X174549256Y-97959547D01*
X174136779Y-97877500D01*
X173716221Y-97877500D01*
X173303744Y-97959547D01*
X172915198Y-98120488D01*
X172565517Y-98354137D01*
X172268137Y-98651517D01*
X172034488Y-99001198D01*
X171873547Y-99389744D01*
X171791500Y-99802221D01*
X162790746Y-99802221D01*
X162713119Y-99686044D01*
X162568956Y-99541881D01*
X162399438Y-99428613D01*
X162211080Y-99350592D01*
X162011121Y-99310818D01*
X161807243Y-99310818D01*
X161607284Y-99350592D01*
X161418926Y-99428613D01*
X161249408Y-99541881D01*
X161105245Y-99686044D01*
X160991977Y-99855562D01*
X160913956Y-100043920D01*
X160874182Y-100243879D01*
X108204000Y-100243879D01*
X108204000Y-95601372D01*
X109715500Y-95601372D01*
X109715500Y-96041628D01*
X109801390Y-96473425D01*
X109969869Y-96880169D01*
X110214462Y-97246229D01*
X110525771Y-97557538D01*
X110891831Y-97802131D01*
X111298575Y-97970610D01*
X111730372Y-98056500D01*
X112170628Y-98056500D01*
X112602425Y-97970610D01*
X113009169Y-97802131D01*
X113375229Y-97557538D01*
X113686538Y-97246229D01*
X113931131Y-96880169D01*
X114099610Y-96473425D01*
X114185500Y-96041628D01*
X114185500Y-95601372D01*
X178295500Y-95601372D01*
X178295500Y-96041628D01*
X178381390Y-96473425D01*
X178549869Y-96880169D01*
X178794462Y-97246229D01*
X179105771Y-97557538D01*
X179471831Y-97802131D01*
X179878575Y-97970610D01*
X180310372Y-98056500D01*
X180750628Y-98056500D01*
X181182425Y-97970610D01*
X181589169Y-97802131D01*
X181955229Y-97557538D01*
X182266538Y-97246229D01*
X182511131Y-96880169D01*
X182679610Y-96473425D01*
X182765500Y-96041628D01*
X182765500Y-95601372D01*
X182679610Y-95169575D01*
X182511131Y-94762831D01*
X182266538Y-94396771D01*
X181955229Y-94085462D01*
X181589169Y-93840869D01*
X181182425Y-93672390D01*
X180750628Y-93586500D01*
X180310372Y-93586500D01*
X179878575Y-93672390D01*
X179471831Y-93840869D01*
X179105771Y-94085462D01*
X178794462Y-94396771D01*
X178549869Y-94762831D01*
X178381390Y-95169575D01*
X178295500Y-95601372D01*
X114185500Y-95601372D01*
X114099610Y-95169575D01*
X113931131Y-94762831D01*
X113686538Y-94396771D01*
X113375229Y-94085462D01*
X113009169Y-93840869D01*
X112602425Y-93672390D01*
X112170628Y-93586500D01*
X111730372Y-93586500D01*
X111298575Y-93672390D01*
X110891831Y-93840869D01*
X110525771Y-94085462D01*
X110214462Y-94396771D01*
X109969869Y-94762831D01*
X109801390Y-95169575D01*
X109715500Y-95601372D01*
X108204000Y-95601372D01*
X108204000Y-93345000D01*
X183515000Y-93345000D01*
X183515000Y-123571000D01*
G37*
%TD.AperFunction*%
%TD*%
M02*
