%TF.GenerationSoftware,KiCad,Pcbnew,(5.1.8)-1*%
%TF.CreationDate,2022-04-01T10:58:03+02:00*%
%TF.ProjectId,HVPowerSupply,4856506f-7765-4725-9375-70706c792e6b,0*%
%TF.SameCoordinates,Original*%
%TF.FileFunction,Legend,Top*%
%TF.FilePolarity,Positive*%
%FSLAX46Y46*%
G04 Gerber Fmt 4.6, Leading zero omitted, Abs format (unit mm)*
G04 Created by KiCad (PCBNEW (5.1.8)-1) date 2022-04-01 10:58:03*
%MOMM*%
%LPD*%
G01*
G04 APERTURE LIST*
%ADD10C,0.120000*%
%ADD11C,0.250000*%
%ADD12C,0.240000*%
%ADD13C,0.127000*%
%ADD14C,0.150000*%
G04 APERTURE END LIST*
D10*
X174455000Y-117665500D02*
X174455000Y-118364000D01*
X173947000Y-118364000D02*
X174391500Y-118046500D01*
X173947000Y-117602000D02*
X173947000Y-118364000D01*
X174455000Y-117983000D02*
X174645500Y-117983000D01*
X173947000Y-117983000D02*
X173693000Y-117983000D01*
X174455000Y-117983000D02*
X173947000Y-117602000D01*
D11*
X111887095Y-111450500D02*
X111791857Y-111402880D01*
X111649000Y-111402880D01*
X111506142Y-111450500D01*
X111410904Y-111545738D01*
X111363285Y-111640976D01*
X111315666Y-111831452D01*
X111315666Y-111974309D01*
X111363285Y-112164785D01*
X111410904Y-112260023D01*
X111506142Y-112355261D01*
X111649000Y-112402880D01*
X111744238Y-112402880D01*
X111887095Y-112355261D01*
X111934714Y-112307642D01*
X111934714Y-111974309D01*
X111744238Y-111974309D01*
X112363285Y-112402880D02*
X112363285Y-111402880D01*
X112934714Y-112402880D01*
X112934714Y-111402880D01*
X113410904Y-112402880D02*
X113410904Y-111402880D01*
X113649000Y-111402880D01*
X113791857Y-111450500D01*
X113887095Y-111545738D01*
X113934714Y-111640976D01*
X113982333Y-111831452D01*
X113982333Y-111974309D01*
X113934714Y-112164785D01*
X113887095Y-112260023D01*
X113791857Y-112355261D01*
X113649000Y-112402880D01*
X113410904Y-112402880D01*
X179451095Y-104211500D02*
X179355857Y-104163880D01*
X179213000Y-104163880D01*
X179070142Y-104211500D01*
X178974904Y-104306738D01*
X178927285Y-104401976D01*
X178879666Y-104592452D01*
X178879666Y-104735309D01*
X178927285Y-104925785D01*
X178974904Y-105021023D01*
X179070142Y-105116261D01*
X179213000Y-105163880D01*
X179308238Y-105163880D01*
X179451095Y-105116261D01*
X179498714Y-105068642D01*
X179498714Y-104735309D01*
X179308238Y-104735309D01*
X179927285Y-105163880D02*
X179927285Y-104163880D01*
X180498714Y-105163880D01*
X180498714Y-104163880D01*
X180974904Y-105163880D02*
X180974904Y-104163880D01*
X181213000Y-104163880D01*
X181355857Y-104211500D01*
X181451095Y-104306738D01*
X181498714Y-104401976D01*
X181546333Y-104592452D01*
X181546333Y-104735309D01*
X181498714Y-104925785D01*
X181451095Y-105021023D01*
X181355857Y-105116261D01*
X181213000Y-105163880D01*
X180974904Y-105163880D01*
X178578095Y-100210928D02*
X179340000Y-100210928D01*
X178959047Y-100591880D02*
X178959047Y-99829976D01*
X180340000Y-100591880D02*
X179768571Y-100591880D01*
X180054285Y-100591880D02*
X180054285Y-99591880D01*
X179959047Y-99734738D01*
X179863809Y-99829976D01*
X179768571Y-99877595D01*
X180720952Y-99687119D02*
X180768571Y-99639500D01*
X180863809Y-99591880D01*
X181101904Y-99591880D01*
X181197142Y-99639500D01*
X181244761Y-99687119D01*
X181292380Y-99782357D01*
X181292380Y-99877595D01*
X181244761Y-100020452D01*
X180673333Y-100591880D01*
X181292380Y-100591880D01*
X181578095Y-99591880D02*
X181911428Y-100591880D01*
X182244761Y-99591880D01*
D10*
X136525000Y-102108000D02*
X137287000Y-102108000D01*
X136525000Y-102870000D02*
X135382000Y-102108000D01*
X136525000Y-101282500D02*
X136525000Y-102870000D01*
X135382000Y-102108000D02*
X136525000Y-101282500D01*
X135382000Y-101282500D02*
X135382000Y-102933500D01*
X135382000Y-102108000D02*
X134747000Y-102108000D01*
X169164000Y-112458500D02*
X169164000Y-112712500D01*
X169164000Y-111950500D02*
X169164000Y-111760000D01*
X169545000Y-112458500D02*
X169227500Y-112014000D01*
X168783000Y-112458500D02*
X169545000Y-112458500D01*
X169164000Y-111950500D02*
X168783000Y-112458500D01*
X168846500Y-111950500D02*
X169545000Y-111950500D01*
D11*
X110918904Y-99067928D02*
X111680809Y-99067928D01*
X111299857Y-99448880D02*
X111299857Y-98686976D01*
X112680809Y-99448880D02*
X112109380Y-99448880D01*
X112395095Y-99448880D02*
X112395095Y-98448880D01*
X112299857Y-98591738D01*
X112204619Y-98686976D01*
X112109380Y-98734595D01*
X113014142Y-98448880D02*
X113680809Y-98448880D01*
X113252238Y-99448880D01*
X114252238Y-98448880D02*
X114347476Y-98448880D01*
X114442714Y-98496500D01*
X114490333Y-98544119D01*
X114537952Y-98639357D01*
X114585571Y-98829833D01*
X114585571Y-99067928D01*
X114537952Y-99258404D01*
X114490333Y-99353642D01*
X114442714Y-99401261D01*
X114347476Y-99448880D01*
X114252238Y-99448880D01*
X114157000Y-99401261D01*
X114109380Y-99353642D01*
X114061761Y-99258404D01*
X114014142Y-99067928D01*
X114014142Y-98829833D01*
X114061761Y-98639357D01*
X114109380Y-98544119D01*
X114157000Y-98496500D01*
X114252238Y-98448880D01*
X114871285Y-98448880D02*
X115204619Y-99448880D01*
X115537952Y-98448880D01*
D10*
%TO.C,L1*%
X156514800Y-95580200D02*
X143459200Y-95580200D01*
X143459200Y-95580200D02*
X143459200Y-99161119D01*
X143459200Y-108635800D02*
X156514800Y-108635800D01*
X156514800Y-108635800D02*
X156514800Y-105054881D01*
X156514800Y-99161119D02*
X156514800Y-95580200D01*
X143459200Y-105054881D02*
X143459200Y-108635800D01*
%TO.C,F1*%
X162483800Y-98021350D02*
X162483800Y-100606650D01*
X165430200Y-100606650D02*
X165430200Y-98021350D01*
%TO.C,C2*%
X149860000Y-117160040D02*
X149860000Y-122809000D01*
X163322000Y-114995960D02*
X163322000Y-109347000D01*
X163322000Y-122809000D02*
X163322000Y-117160040D01*
X149860000Y-122809000D02*
X163322000Y-122809000D01*
X149860000Y-109347000D02*
X149860000Y-114995960D01*
X163322000Y-109347000D02*
X149860000Y-109347000D01*
%TO.C,CR1*%
X173126400Y-115404900D02*
X177393600Y-115404900D01*
X177393600Y-110147100D02*
X173126400Y-110147100D01*
%TO.C,R8*%
X158904000Y-98070936D02*
X158904000Y-98525064D01*
X160374000Y-98070936D02*
X160374000Y-98525064D01*
%TO.C,R9*%
X161349000Y-102724936D02*
X161349000Y-107079064D01*
X157929000Y-102724936D02*
X157929000Y-107079064D01*
%TO.C,R10*%
X180748000Y-108992936D02*
X180748000Y-109447064D01*
X182218000Y-108992936D02*
X182218000Y-109447064D01*
%TO.C,R7*%
X172302500Y-120676936D02*
X172302500Y-121131064D01*
X173772500Y-120676936D02*
X173772500Y-121131064D01*
%TO.C,D3*%
X175617000Y-118833000D02*
X173067000Y-118833000D01*
X175617000Y-117133000D02*
X173067000Y-117133000D01*
X175617000Y-118833000D02*
X175617000Y-117133000D01*
%TO.C,C10*%
X128453248Y-98779000D02*
X128975752Y-98779000D01*
X128453248Y-97309000D02*
X128975752Y-97309000D01*
%TO.C,C9*%
X121101752Y-96991500D02*
X120579248Y-96991500D01*
X121101752Y-98461500D02*
X120579248Y-98461500D01*
%TO.C,C8*%
X175804500Y-121165252D02*
X175804500Y-120642748D01*
X174334500Y-121165252D02*
X174334500Y-120642748D01*
%TO.C,C7*%
X182091000Y-113037252D02*
X182091000Y-112514748D01*
X180621000Y-113037252D02*
X180621000Y-112514748D01*
%TO.C,C6*%
X164492000Y-105910748D02*
X164492000Y-106433252D01*
X165962000Y-105910748D02*
X165962000Y-106433252D01*
%TO.C,C5*%
X167286000Y-105910748D02*
X167286000Y-106433252D01*
X168756000Y-105910748D02*
X168756000Y-106433252D01*
%TO.C,Q1*%
X165229000Y-113784500D02*
X167389000Y-113784500D01*
X165229000Y-110624500D02*
X166689000Y-110624500D01*
X165229000Y-110624500D02*
X165229000Y-111554500D01*
X165229000Y-113784500D02*
X165229000Y-112854500D01*
%TO.C,C4*%
X119227000Y-111278000D02*
X123077000Y-111278000D01*
X129947000Y-111278000D02*
X126097000Y-111278000D01*
X129947000Y-101622437D02*
X129947000Y-111278000D01*
X119227000Y-101622437D02*
X119227000Y-111278000D01*
X120291437Y-100558000D02*
X123077000Y-100558000D01*
X128882563Y-100558000D02*
X126097000Y-100558000D01*
X128882563Y-100558000D02*
X129947000Y-101622437D01*
X120291437Y-100558000D02*
X119227000Y-101622437D01*
X127347000Y-99068000D02*
X127347000Y-100318000D01*
X127972000Y-99693000D02*
X126722000Y-99693000D01*
D12*
%TO.C,R6*%
X115460670Y-116620000D02*
G75*
G03*
X115460670Y-116620000I-120000J0D01*
G01*
D13*
X110595000Y-113262000D02*
X110595000Y-113862000D01*
X113245000Y-113262000D02*
X110595000Y-113262000D01*
X110595000Y-116862000D02*
X110595000Y-116262000D01*
X113245000Y-116862000D02*
X110595000Y-116862000D01*
D10*
%TO.C,J2*%
X115697000Y-100711000D02*
X115697000Y-110871000D01*
X116967000Y-100711000D02*
X109347000Y-100711000D01*
X109347000Y-100711000D02*
X109347000Y-110871000D01*
X109347000Y-110871000D02*
X116967000Y-110871000D01*
X116967000Y-110871000D02*
X116967000Y-100711000D01*
%TO.C,J1*%
X176466500Y-97472500D02*
X176466500Y-107632500D01*
X177736500Y-97472500D02*
X170116500Y-97472500D01*
X170116500Y-97472500D02*
X170116500Y-107632500D01*
X170116500Y-107632500D02*
X177736500Y-107632500D01*
X177736500Y-107632500D02*
X177736500Y-97472500D01*
%TO.C,R5*%
X124456564Y-119353000D02*
X124002436Y-119353000D01*
X124456564Y-117883000D02*
X124002436Y-117883000D01*
%TO.C,R4*%
X128423936Y-114835000D02*
X128878064Y-114835000D01*
X128423936Y-116305000D02*
X128878064Y-116305000D01*
%TO.C,R3*%
X123851936Y-114835000D02*
X124306064Y-114835000D01*
X123851936Y-116305000D02*
X124306064Y-116305000D01*
%TO.C,R2*%
X119279936Y-114835000D02*
X119734064Y-114835000D01*
X119279936Y-116305000D02*
X119734064Y-116305000D01*
%TO.C,R1*%
X167549500Y-116422436D02*
X167549500Y-116876564D01*
X166079500Y-116422436D02*
X166079500Y-116876564D01*
%TO.C,Q2*%
X141277000Y-118738000D02*
X142777000Y-118738000D01*
X142777000Y-118738000D02*
X142777000Y-116928000D01*
X142777000Y-116928000D02*
X147902000Y-116928000D01*
X141277000Y-108338000D02*
X142777000Y-108338000D01*
X142777000Y-108338000D02*
X142777000Y-110148000D01*
X142777000Y-110148000D02*
X143877000Y-110148000D01*
%TO.C,D2*%
X131217000Y-105358000D02*
X131217000Y-98858000D01*
X131217000Y-105358000D02*
X139617000Y-105358000D01*
X131217000Y-98858000D02*
X139617000Y-98858000D01*
%TO.C,D1*%
X170014000Y-110788500D02*
X168314000Y-110788500D01*
X168314000Y-110788500D02*
X168314000Y-113338500D01*
X170014000Y-110788500D02*
X170014000Y-113338500D01*
%TO.C,C3*%
X164238000Y-121165252D02*
X164238000Y-120642748D01*
X165708000Y-121165252D02*
X165708000Y-120642748D01*
%TO.C,C1*%
X169835500Y-116388248D02*
X169835500Y-116910752D01*
X168365500Y-116388248D02*
X168365500Y-116910752D01*
%TO.C,L1*%
D14*
X142263833Y-96337380D02*
X141787642Y-96337380D01*
X141787642Y-95337380D01*
X143120976Y-96337380D02*
X142549547Y-96337380D01*
X142835261Y-96337380D02*
X142835261Y-95337380D01*
X142740023Y-95480238D01*
X142644785Y-95575476D01*
X142549547Y-95623095D01*
%TO.C,F1*%
X166481166Y-96258071D02*
X166147833Y-96258071D01*
X166147833Y-96781880D02*
X166147833Y-95781880D01*
X166624023Y-95781880D01*
X167528785Y-96781880D02*
X166957357Y-96781880D01*
X167243071Y-96781880D02*
X167243071Y-95781880D01*
X167147833Y-95924738D01*
X167052595Y-96019976D01*
X166957357Y-96067595D01*
%TO.C,C2*%
X148423333Y-121578642D02*
X148375714Y-121626261D01*
X148232857Y-121673880D01*
X148137619Y-121673880D01*
X147994761Y-121626261D01*
X147899523Y-121531023D01*
X147851904Y-121435785D01*
X147804285Y-121245309D01*
X147804285Y-121102452D01*
X147851904Y-120911976D01*
X147899523Y-120816738D01*
X147994761Y-120721500D01*
X148137619Y-120673880D01*
X148232857Y-120673880D01*
X148375714Y-120721500D01*
X148423333Y-120769119D01*
X148804285Y-120769119D02*
X148851904Y-120721500D01*
X148947142Y-120673880D01*
X149185238Y-120673880D01*
X149280476Y-120721500D01*
X149328095Y-120769119D01*
X149375714Y-120864357D01*
X149375714Y-120959595D01*
X149328095Y-121102452D01*
X148756666Y-121673880D01*
X149375714Y-121673880D01*
X156591000Y-115530380D02*
X156591000Y-115768476D01*
X156352904Y-115673238D02*
X156591000Y-115768476D01*
X156829095Y-115673238D01*
X156448142Y-115958952D02*
X156591000Y-115768476D01*
X156733857Y-115958952D01*
%TO.C,CR1*%
X175482333Y-116689142D02*
X175434714Y-116736761D01*
X175291857Y-116784380D01*
X175196619Y-116784380D01*
X175053761Y-116736761D01*
X174958523Y-116641523D01*
X174910904Y-116546285D01*
X174863285Y-116355809D01*
X174863285Y-116212952D01*
X174910904Y-116022476D01*
X174958523Y-115927238D01*
X175053761Y-115832000D01*
X175196619Y-115784380D01*
X175291857Y-115784380D01*
X175434714Y-115832000D01*
X175482333Y-115879619D01*
X176482333Y-116784380D02*
X176149000Y-116308190D01*
X175910904Y-116784380D02*
X175910904Y-115784380D01*
X176291857Y-115784380D01*
X176387095Y-115832000D01*
X176434714Y-115879619D01*
X176482333Y-115974857D01*
X176482333Y-116117714D01*
X176434714Y-116212952D01*
X176387095Y-116260571D01*
X176291857Y-116308190D01*
X175910904Y-116308190D01*
X177434714Y-116784380D02*
X176863285Y-116784380D01*
X177149000Y-116784380D02*
X177149000Y-115784380D01*
X177053761Y-115927238D01*
X176958523Y-116022476D01*
X176863285Y-116070095D01*
X170815000Y-110450380D02*
X170815000Y-110688476D01*
X170576904Y-110593238D02*
X170815000Y-110688476D01*
X171053095Y-110593238D01*
X170672142Y-110878952D02*
X170815000Y-110688476D01*
X170957857Y-110878952D01*
%TO.C,R8*%
X159472333Y-95956380D02*
X159139000Y-95480190D01*
X158900904Y-95956380D02*
X158900904Y-94956380D01*
X159281857Y-94956380D01*
X159377095Y-95004000D01*
X159424714Y-95051619D01*
X159472333Y-95146857D01*
X159472333Y-95289714D01*
X159424714Y-95384952D01*
X159377095Y-95432571D01*
X159281857Y-95480190D01*
X158900904Y-95480190D01*
X160043761Y-95384952D02*
X159948523Y-95337333D01*
X159900904Y-95289714D01*
X159853285Y-95194476D01*
X159853285Y-95146857D01*
X159900904Y-95051619D01*
X159948523Y-95004000D01*
X160043761Y-94956380D01*
X160234238Y-94956380D01*
X160329476Y-95004000D01*
X160377095Y-95051619D01*
X160424714Y-95146857D01*
X160424714Y-95194476D01*
X160377095Y-95289714D01*
X160329476Y-95337333D01*
X160234238Y-95384952D01*
X160043761Y-95384952D01*
X159948523Y-95432571D01*
X159900904Y-95480190D01*
X159853285Y-95575428D01*
X159853285Y-95765904D01*
X159900904Y-95861142D01*
X159948523Y-95908761D01*
X160043761Y-95956380D01*
X160234238Y-95956380D01*
X160329476Y-95908761D01*
X160377095Y-95861142D01*
X160424714Y-95765904D01*
X160424714Y-95575428D01*
X160377095Y-95480190D01*
X160329476Y-95432571D01*
X160234238Y-95384952D01*
%TO.C,R9*%
X159345333Y-101036380D02*
X159012000Y-100560190D01*
X158773904Y-101036380D02*
X158773904Y-100036380D01*
X159154857Y-100036380D01*
X159250095Y-100084000D01*
X159297714Y-100131619D01*
X159345333Y-100226857D01*
X159345333Y-100369714D01*
X159297714Y-100464952D01*
X159250095Y-100512571D01*
X159154857Y-100560190D01*
X158773904Y-100560190D01*
X159821523Y-101036380D02*
X160012000Y-101036380D01*
X160107238Y-100988761D01*
X160154857Y-100941142D01*
X160250095Y-100798285D01*
X160297714Y-100607809D01*
X160297714Y-100226857D01*
X160250095Y-100131619D01*
X160202476Y-100084000D01*
X160107238Y-100036380D01*
X159916761Y-100036380D01*
X159821523Y-100084000D01*
X159773904Y-100131619D01*
X159726285Y-100226857D01*
X159726285Y-100464952D01*
X159773904Y-100560190D01*
X159821523Y-100607809D01*
X159916761Y-100655428D01*
X160107238Y-100655428D01*
X160202476Y-100607809D01*
X160250095Y-100560190D01*
X160297714Y-100464952D01*
%TO.C,R10*%
X180268642Y-107005380D02*
X179935309Y-106529190D01*
X179697214Y-107005380D02*
X179697214Y-106005380D01*
X180078166Y-106005380D01*
X180173404Y-106053000D01*
X180221023Y-106100619D01*
X180268642Y-106195857D01*
X180268642Y-106338714D01*
X180221023Y-106433952D01*
X180173404Y-106481571D01*
X180078166Y-106529190D01*
X179697214Y-106529190D01*
X181221023Y-107005380D02*
X180649595Y-107005380D01*
X180935309Y-107005380D02*
X180935309Y-106005380D01*
X180840071Y-106148238D01*
X180744833Y-106243476D01*
X180649595Y-106291095D01*
X181840071Y-106005380D02*
X181935309Y-106005380D01*
X182030547Y-106053000D01*
X182078166Y-106100619D01*
X182125785Y-106195857D01*
X182173404Y-106386333D01*
X182173404Y-106624428D01*
X182125785Y-106814904D01*
X182078166Y-106910142D01*
X182030547Y-106957761D01*
X181935309Y-107005380D01*
X181840071Y-107005380D01*
X181744833Y-106957761D01*
X181697214Y-106910142D01*
X181649595Y-106814904D01*
X181601976Y-106624428D01*
X181601976Y-106386333D01*
X181649595Y-106195857D01*
X181697214Y-106100619D01*
X181744833Y-106053000D01*
X181840071Y-106005380D01*
%TO.C,R7*%
X170902333Y-121864380D02*
X170569000Y-121388190D01*
X170330904Y-121864380D02*
X170330904Y-120864380D01*
X170711857Y-120864380D01*
X170807095Y-120912000D01*
X170854714Y-120959619D01*
X170902333Y-121054857D01*
X170902333Y-121197714D01*
X170854714Y-121292952D01*
X170807095Y-121340571D01*
X170711857Y-121388190D01*
X170330904Y-121388190D01*
X171235666Y-120864380D02*
X171902333Y-120864380D01*
X171473761Y-121864380D01*
%TO.C,D3*%
X176553904Y-118435380D02*
X176553904Y-117435380D01*
X176792000Y-117435380D01*
X176934857Y-117483000D01*
X177030095Y-117578238D01*
X177077714Y-117673476D01*
X177125333Y-117863952D01*
X177125333Y-118006809D01*
X177077714Y-118197285D01*
X177030095Y-118292523D01*
X176934857Y-118387761D01*
X176792000Y-118435380D01*
X176553904Y-118435380D01*
X177458666Y-117435380D02*
X178077714Y-117435380D01*
X177744380Y-117816333D01*
X177887238Y-117816333D01*
X177982476Y-117863952D01*
X178030095Y-117911571D01*
X178077714Y-118006809D01*
X178077714Y-118244904D01*
X178030095Y-118340142D01*
X177982476Y-118387761D01*
X177887238Y-118435380D01*
X177601523Y-118435380D01*
X177506285Y-118387761D01*
X177458666Y-118340142D01*
%TO.C,C10*%
X124960142Y-96750142D02*
X124912523Y-96797761D01*
X124769666Y-96845380D01*
X124674428Y-96845380D01*
X124531571Y-96797761D01*
X124436333Y-96702523D01*
X124388714Y-96607285D01*
X124341095Y-96416809D01*
X124341095Y-96273952D01*
X124388714Y-96083476D01*
X124436333Y-95988238D01*
X124531571Y-95893000D01*
X124674428Y-95845380D01*
X124769666Y-95845380D01*
X124912523Y-95893000D01*
X124960142Y-95940619D01*
X125912523Y-96845380D02*
X125341095Y-96845380D01*
X125626809Y-96845380D02*
X125626809Y-95845380D01*
X125531571Y-95988238D01*
X125436333Y-96083476D01*
X125341095Y-96131095D01*
X126531571Y-95845380D02*
X126626809Y-95845380D01*
X126722047Y-95893000D01*
X126769666Y-95940619D01*
X126817285Y-96035857D01*
X126864904Y-96226333D01*
X126864904Y-96464428D01*
X126817285Y-96654904D01*
X126769666Y-96750142D01*
X126722047Y-96797761D01*
X126626809Y-96845380D01*
X126531571Y-96845380D01*
X126436333Y-96797761D01*
X126388714Y-96750142D01*
X126341095Y-96654904D01*
X126293476Y-96464428D01*
X126293476Y-96226333D01*
X126341095Y-96035857D01*
X126388714Y-95940619D01*
X126436333Y-95893000D01*
X126531571Y-95845380D01*
%TO.C,C9*%
X117689333Y-96623142D02*
X117641714Y-96670761D01*
X117498857Y-96718380D01*
X117403619Y-96718380D01*
X117260761Y-96670761D01*
X117165523Y-96575523D01*
X117117904Y-96480285D01*
X117070285Y-96289809D01*
X117070285Y-96146952D01*
X117117904Y-95956476D01*
X117165523Y-95861238D01*
X117260761Y-95766000D01*
X117403619Y-95718380D01*
X117498857Y-95718380D01*
X117641714Y-95766000D01*
X117689333Y-95813619D01*
X118165523Y-96718380D02*
X118356000Y-96718380D01*
X118451238Y-96670761D01*
X118498857Y-96623142D01*
X118594095Y-96480285D01*
X118641714Y-96289809D01*
X118641714Y-95908857D01*
X118594095Y-95813619D01*
X118546476Y-95766000D01*
X118451238Y-95718380D01*
X118260761Y-95718380D01*
X118165523Y-95766000D01*
X118117904Y-95813619D01*
X118070285Y-95908857D01*
X118070285Y-96146952D01*
X118117904Y-96242190D01*
X118165523Y-96289809D01*
X118260761Y-96337428D01*
X118451238Y-96337428D01*
X118546476Y-96289809D01*
X118594095Y-96242190D01*
X118641714Y-96146952D01*
%TO.C,C8*%
X176998333Y-121769142D02*
X176950714Y-121816761D01*
X176807857Y-121864380D01*
X176712619Y-121864380D01*
X176569761Y-121816761D01*
X176474523Y-121721523D01*
X176426904Y-121626285D01*
X176379285Y-121435809D01*
X176379285Y-121292952D01*
X176426904Y-121102476D01*
X176474523Y-121007238D01*
X176569761Y-120912000D01*
X176712619Y-120864380D01*
X176807857Y-120864380D01*
X176950714Y-120912000D01*
X176998333Y-120959619D01*
X177569761Y-121292952D02*
X177474523Y-121245333D01*
X177426904Y-121197714D01*
X177379285Y-121102476D01*
X177379285Y-121054857D01*
X177426904Y-120959619D01*
X177474523Y-120912000D01*
X177569761Y-120864380D01*
X177760238Y-120864380D01*
X177855476Y-120912000D01*
X177903095Y-120959619D01*
X177950714Y-121054857D01*
X177950714Y-121102476D01*
X177903095Y-121197714D01*
X177855476Y-121245333D01*
X177760238Y-121292952D01*
X177569761Y-121292952D01*
X177474523Y-121340571D01*
X177426904Y-121388190D01*
X177379285Y-121483428D01*
X177379285Y-121673904D01*
X177426904Y-121769142D01*
X177474523Y-121816761D01*
X177569761Y-121864380D01*
X177760238Y-121864380D01*
X177855476Y-121816761D01*
X177903095Y-121769142D01*
X177950714Y-121673904D01*
X177950714Y-121483428D01*
X177903095Y-121388190D01*
X177855476Y-121340571D01*
X177760238Y-121292952D01*
%TO.C,C7*%
X181062333Y-115800142D02*
X181014714Y-115847761D01*
X180871857Y-115895380D01*
X180776619Y-115895380D01*
X180633761Y-115847761D01*
X180538523Y-115752523D01*
X180490904Y-115657285D01*
X180443285Y-115466809D01*
X180443285Y-115323952D01*
X180490904Y-115133476D01*
X180538523Y-115038238D01*
X180633761Y-114943000D01*
X180776619Y-114895380D01*
X180871857Y-114895380D01*
X181014714Y-114943000D01*
X181062333Y-114990619D01*
X181395666Y-114895380D02*
X182062333Y-114895380D01*
X181633761Y-115895380D01*
%TO.C,C6*%
X165060333Y-104306642D02*
X165012714Y-104354261D01*
X164869857Y-104401880D01*
X164774619Y-104401880D01*
X164631761Y-104354261D01*
X164536523Y-104259023D01*
X164488904Y-104163785D01*
X164441285Y-103973309D01*
X164441285Y-103830452D01*
X164488904Y-103639976D01*
X164536523Y-103544738D01*
X164631761Y-103449500D01*
X164774619Y-103401880D01*
X164869857Y-103401880D01*
X165012714Y-103449500D01*
X165060333Y-103497119D01*
X165917476Y-103401880D02*
X165727000Y-103401880D01*
X165631761Y-103449500D01*
X165584142Y-103497119D01*
X165488904Y-103639976D01*
X165441285Y-103830452D01*
X165441285Y-104211404D01*
X165488904Y-104306642D01*
X165536523Y-104354261D01*
X165631761Y-104401880D01*
X165822238Y-104401880D01*
X165917476Y-104354261D01*
X165965095Y-104306642D01*
X166012714Y-104211404D01*
X166012714Y-103973309D01*
X165965095Y-103878071D01*
X165917476Y-103830452D01*
X165822238Y-103782833D01*
X165631761Y-103782833D01*
X165536523Y-103830452D01*
X165488904Y-103878071D01*
X165441285Y-103973309D01*
%TO.C,C5*%
X167854333Y-104243142D02*
X167806714Y-104290761D01*
X167663857Y-104338380D01*
X167568619Y-104338380D01*
X167425761Y-104290761D01*
X167330523Y-104195523D01*
X167282904Y-104100285D01*
X167235285Y-103909809D01*
X167235285Y-103766952D01*
X167282904Y-103576476D01*
X167330523Y-103481238D01*
X167425761Y-103386000D01*
X167568619Y-103338380D01*
X167663857Y-103338380D01*
X167806714Y-103386000D01*
X167854333Y-103433619D01*
X168759095Y-103338380D02*
X168282904Y-103338380D01*
X168235285Y-103814571D01*
X168282904Y-103766952D01*
X168378142Y-103719333D01*
X168616238Y-103719333D01*
X168711476Y-103766952D01*
X168759095Y-103814571D01*
X168806714Y-103909809D01*
X168806714Y-104147904D01*
X168759095Y-104243142D01*
X168711476Y-104290761D01*
X168616238Y-104338380D01*
X168378142Y-104338380D01*
X168282904Y-104290761D01*
X168235285Y-104243142D01*
%TO.C,Q1*%
X164687261Y-115165119D02*
X164592023Y-115117500D01*
X164496785Y-115022261D01*
X164353928Y-114879404D01*
X164258690Y-114831785D01*
X164163452Y-114831785D01*
X164211071Y-115069880D02*
X164115833Y-115022261D01*
X164020595Y-114927023D01*
X163972976Y-114736547D01*
X163972976Y-114403214D01*
X164020595Y-114212738D01*
X164115833Y-114117500D01*
X164211071Y-114069880D01*
X164401547Y-114069880D01*
X164496785Y-114117500D01*
X164592023Y-114212738D01*
X164639642Y-114403214D01*
X164639642Y-114736547D01*
X164592023Y-114927023D01*
X164496785Y-115022261D01*
X164401547Y-115069880D01*
X164211071Y-115069880D01*
X165592023Y-115069880D02*
X165020595Y-115069880D01*
X165306309Y-115069880D02*
X165306309Y-114069880D01*
X165211071Y-114212738D01*
X165115833Y-114307976D01*
X165020595Y-114355595D01*
%TO.C,C4*%
X127214333Y-112625142D02*
X127166714Y-112672761D01*
X127023857Y-112720380D01*
X126928619Y-112720380D01*
X126785761Y-112672761D01*
X126690523Y-112577523D01*
X126642904Y-112482285D01*
X126595285Y-112291809D01*
X126595285Y-112148952D01*
X126642904Y-111958476D01*
X126690523Y-111863238D01*
X126785761Y-111768000D01*
X126928619Y-111720380D01*
X127023857Y-111720380D01*
X127166714Y-111768000D01*
X127214333Y-111815619D01*
X128071476Y-112053714D02*
X128071476Y-112720380D01*
X127833380Y-111672761D02*
X127595285Y-112387047D01*
X128214333Y-112387047D01*
%TO.C,R6*%
X113117305Y-119006955D02*
X112783917Y-118530686D01*
X112545782Y-119006955D02*
X112545782Y-118006790D01*
X112926798Y-118006790D01*
X113022052Y-118054417D01*
X113069678Y-118102044D01*
X113117305Y-118197298D01*
X113117305Y-118340178D01*
X113069678Y-118435432D01*
X113022052Y-118483059D01*
X112926798Y-118530686D01*
X112545782Y-118530686D01*
X113974590Y-118006790D02*
X113784082Y-118006790D01*
X113688828Y-118054417D01*
X113641201Y-118102044D01*
X113545947Y-118244925D01*
X113498321Y-118435432D01*
X113498321Y-118816447D01*
X113545947Y-118911701D01*
X113593574Y-118959328D01*
X113688828Y-119006955D01*
X113879336Y-119006955D01*
X113974590Y-118959328D01*
X114022217Y-118911701D01*
X114069843Y-118816447D01*
X114069843Y-118578313D01*
X114022217Y-118483059D01*
X113974590Y-118435432D01*
X113879336Y-118387805D01*
X113688828Y-118387805D01*
X113593574Y-118435432D01*
X113545947Y-118483059D01*
X113498321Y-118578313D01*
%TO.C,R5*%
X124062833Y-120720380D02*
X123729500Y-120244190D01*
X123491404Y-120720380D02*
X123491404Y-119720380D01*
X123872357Y-119720380D01*
X123967595Y-119768000D01*
X124015214Y-119815619D01*
X124062833Y-119910857D01*
X124062833Y-120053714D01*
X124015214Y-120148952D01*
X123967595Y-120196571D01*
X123872357Y-120244190D01*
X123491404Y-120244190D01*
X124967595Y-119720380D02*
X124491404Y-119720380D01*
X124443785Y-120196571D01*
X124491404Y-120148952D01*
X124586642Y-120101333D01*
X124824738Y-120101333D01*
X124919976Y-120148952D01*
X124967595Y-120196571D01*
X125015214Y-120291809D01*
X125015214Y-120529904D01*
X124967595Y-120625142D01*
X124919976Y-120672761D01*
X124824738Y-120720380D01*
X124586642Y-120720380D01*
X124491404Y-120672761D01*
X124443785Y-120625142D01*
%TO.C,R4*%
X127912833Y-114371380D02*
X127579500Y-113895190D01*
X127341404Y-114371380D02*
X127341404Y-113371380D01*
X127722357Y-113371380D01*
X127817595Y-113419000D01*
X127865214Y-113466619D01*
X127912833Y-113561857D01*
X127912833Y-113704714D01*
X127865214Y-113799952D01*
X127817595Y-113847571D01*
X127722357Y-113895190D01*
X127341404Y-113895190D01*
X128769976Y-113704714D02*
X128769976Y-114371380D01*
X128531880Y-113323761D02*
X128293785Y-114038047D01*
X128912833Y-114038047D01*
%TO.C,R3*%
X123912333Y-114372380D02*
X123579000Y-113896190D01*
X123340904Y-114372380D02*
X123340904Y-113372380D01*
X123721857Y-113372380D01*
X123817095Y-113420000D01*
X123864714Y-113467619D01*
X123912333Y-113562857D01*
X123912333Y-113705714D01*
X123864714Y-113800952D01*
X123817095Y-113848571D01*
X123721857Y-113896190D01*
X123340904Y-113896190D01*
X124245666Y-113372380D02*
X124864714Y-113372380D01*
X124531380Y-113753333D01*
X124674238Y-113753333D01*
X124769476Y-113800952D01*
X124817095Y-113848571D01*
X124864714Y-113943809D01*
X124864714Y-114181904D01*
X124817095Y-114277142D01*
X124769476Y-114324761D01*
X124674238Y-114372380D01*
X124388523Y-114372380D01*
X124293285Y-114324761D01*
X124245666Y-114277142D01*
%TO.C,R2*%
X119340333Y-114372380D02*
X119007000Y-113896190D01*
X118768904Y-114372380D02*
X118768904Y-113372380D01*
X119149857Y-113372380D01*
X119245095Y-113420000D01*
X119292714Y-113467619D01*
X119340333Y-113562857D01*
X119340333Y-113705714D01*
X119292714Y-113800952D01*
X119245095Y-113848571D01*
X119149857Y-113896190D01*
X118768904Y-113896190D01*
X119721285Y-113467619D02*
X119768904Y-113420000D01*
X119864142Y-113372380D01*
X120102238Y-113372380D01*
X120197476Y-113420000D01*
X120245095Y-113467619D01*
X120292714Y-113562857D01*
X120292714Y-113658095D01*
X120245095Y-113800952D01*
X119673666Y-114372380D01*
X120292714Y-114372380D01*
%TO.C,R1*%
X166584333Y-119578380D02*
X166251000Y-119102190D01*
X166012904Y-119578380D02*
X166012904Y-118578380D01*
X166393857Y-118578380D01*
X166489095Y-118626000D01*
X166536714Y-118673619D01*
X166584333Y-118768857D01*
X166584333Y-118911714D01*
X166536714Y-119006952D01*
X166489095Y-119054571D01*
X166393857Y-119102190D01*
X166012904Y-119102190D01*
X167536714Y-119578380D02*
X166965285Y-119578380D01*
X167251000Y-119578380D02*
X167251000Y-118578380D01*
X167155761Y-118721238D01*
X167060523Y-118816476D01*
X166965285Y-118864095D01*
%TO.C,Q2*%
X139731761Y-120735619D02*
X139636523Y-120688000D01*
X139541285Y-120592761D01*
X139398428Y-120449904D01*
X139303190Y-120402285D01*
X139207952Y-120402285D01*
X139255571Y-120640380D02*
X139160333Y-120592761D01*
X139065095Y-120497523D01*
X139017476Y-120307047D01*
X139017476Y-119973714D01*
X139065095Y-119783238D01*
X139160333Y-119688000D01*
X139255571Y-119640380D01*
X139446047Y-119640380D01*
X139541285Y-119688000D01*
X139636523Y-119783238D01*
X139684142Y-119973714D01*
X139684142Y-120307047D01*
X139636523Y-120497523D01*
X139541285Y-120592761D01*
X139446047Y-120640380D01*
X139255571Y-120640380D01*
X140065095Y-119735619D02*
X140112714Y-119688000D01*
X140207952Y-119640380D01*
X140446047Y-119640380D01*
X140541285Y-119688000D01*
X140588904Y-119735619D01*
X140636523Y-119830857D01*
X140636523Y-119926095D01*
X140588904Y-120068952D01*
X140017476Y-120640380D01*
X140636523Y-120640380D01*
%TO.C,D2*%
X135278904Y-98460380D02*
X135278904Y-97460380D01*
X135517000Y-97460380D01*
X135659857Y-97508000D01*
X135755095Y-97603238D01*
X135802714Y-97698476D01*
X135850333Y-97888952D01*
X135850333Y-98031809D01*
X135802714Y-98222285D01*
X135755095Y-98317523D01*
X135659857Y-98412761D01*
X135517000Y-98460380D01*
X135278904Y-98460380D01*
X136231285Y-97555619D02*
X136278904Y-97508000D01*
X136374142Y-97460380D01*
X136612238Y-97460380D01*
X136707476Y-97508000D01*
X136755095Y-97555619D01*
X136802714Y-97650857D01*
X136802714Y-97746095D01*
X136755095Y-97888952D01*
X136183666Y-98460380D01*
X136802714Y-98460380D01*
%TO.C,D1*%
X168552904Y-114879380D02*
X168552904Y-113879380D01*
X168791000Y-113879380D01*
X168933857Y-113927000D01*
X169029095Y-114022238D01*
X169076714Y-114117476D01*
X169124333Y-114307952D01*
X169124333Y-114450809D01*
X169076714Y-114641285D01*
X169029095Y-114736523D01*
X168933857Y-114831761D01*
X168791000Y-114879380D01*
X168552904Y-114879380D01*
X170076714Y-114879380D02*
X169505285Y-114879380D01*
X169791000Y-114879380D02*
X169791000Y-113879380D01*
X169695761Y-114022238D01*
X169600523Y-114117476D01*
X169505285Y-114165095D01*
%TO.C,C3*%
X164552333Y-118721142D02*
X164504714Y-118768761D01*
X164361857Y-118816380D01*
X164266619Y-118816380D01*
X164123761Y-118768761D01*
X164028523Y-118673523D01*
X163980904Y-118578285D01*
X163933285Y-118387809D01*
X163933285Y-118244952D01*
X163980904Y-118054476D01*
X164028523Y-117959238D01*
X164123761Y-117864000D01*
X164266619Y-117816380D01*
X164361857Y-117816380D01*
X164504714Y-117864000D01*
X164552333Y-117911619D01*
X164885666Y-117816380D02*
X165504714Y-117816380D01*
X165171380Y-118197333D01*
X165314238Y-118197333D01*
X165409476Y-118244952D01*
X165457095Y-118292571D01*
X165504714Y-118387809D01*
X165504714Y-118625904D01*
X165457095Y-118721142D01*
X165409476Y-118768761D01*
X165314238Y-118816380D01*
X165028523Y-118816380D01*
X164933285Y-118768761D01*
X164885666Y-118721142D01*
%TO.C,C1*%
X168933833Y-119546642D02*
X168886214Y-119594261D01*
X168743357Y-119641880D01*
X168648119Y-119641880D01*
X168505261Y-119594261D01*
X168410023Y-119499023D01*
X168362404Y-119403785D01*
X168314785Y-119213309D01*
X168314785Y-119070452D01*
X168362404Y-118879976D01*
X168410023Y-118784738D01*
X168505261Y-118689500D01*
X168648119Y-118641880D01*
X168743357Y-118641880D01*
X168886214Y-118689500D01*
X168933833Y-118737119D01*
X169886214Y-119641880D02*
X169314785Y-119641880D01*
X169600500Y-119641880D02*
X169600500Y-118641880D01*
X169505261Y-118784738D01*
X169410023Y-118879976D01*
X169314785Y-118927595D01*
%TD*%
M02*
