M48
; DRILL file {KiCad (5.1.8)-1} date 04/01/22 10:58:06
; FORMAT={-:-/ absolute / metric / decimal}
; #@! TF.CreationDate,2022-04-01T10:58:06+02:00
; #@! TF.GenerationSoftware,Kicad,Pcbnew,(5.1.8)-1
FMAT,2
METRIC
T1C0.400
T2C1.520
T3C3.200
%
G90
G05
T1
X110.934Y-113.093
X110.998Y-117.094
X114.236Y-112.522
X116.014Y-114.046
X118.427Y-97.727
X119.888Y-96.012
X121.285Y-110.236
X121.349Y-106.362
X124.587Y-106.236
X127.191Y-106.299
X127.444Y-110.172
X129.603Y-113.728
X129.667Y-95.822
X131.699Y-98.044
X144.272Y-112.903
X146.177Y-112.903
X148.082Y-112.903
X149.987Y-110.998
X149.987Y-112.903
X149.987Y-114.808
X151.892Y-110.998
X151.892Y-112.903
X151.892Y-114.808
X153.797Y-110.998
X153.797Y-112.903
X153.797Y-114.808
X155.702Y-110.998
X155.702Y-112.903
X155.702Y-114.808
X155.702Y-116.713
X161.909Y-100.346
X162.306Y-120.142
X163.322Y-108.585
X163.449Y-112.204
X164.211Y-110.871
X165.227Y-108.712
X166.025Y-101.452
X166.878Y-120.269
X167.132Y-108.585
X168.783Y-108.585
X169.1Y-120.269
X171.767Y-116.459
X171.831Y-122.428
T2
X113.157Y-103.251
X113.157Y-108.331
X173.927Y-100.012
X173.927Y-105.093
T3
X180.53Y-121.412
X111.95Y-121.412
X180.53Y-95.822
X111.95Y-95.822
T0
M30
